D:\school\WTK\thesis\model\3dpredictsim\Results\batch_windlass\Pog_s1_tmt_bCst_d00_k800_WL10_ig24_act_TTC_GRF.mot
nRows=10
nColumns=19

name D:\school\WTK\thesis\model\3dpredictsim\Results\batch_windlass\Pog_s1_tmt_bCst_d00_k800_WL10_ig24_act_TTC_GRF.mot
datacolumns 19
datarows 10
range 0.6167969145 0.7278203591
endheader
time 	ground_force_vx	ground_force_vy	ground_force_vz	ground_force_px	ground_force_py	ground_force_pz	1_ground_force_vx	1_ground_force_vy	1_ground_force_vz	1_ground_force_px	1_ground_force_py	1_ground_force_pz	ground_torque_x	ground_torque_y	ground_torque_z	1_ground_torque_x	1_ground_torque_y	1_ground_torque_z
        0.6167969145	      102.5553778858	      381.0380843307	       -3.8637997060	        0.3818208408	        0.0000000000	        0.0367085649	      -56.3335398601	       43.0226196675	       -4.8486049549	        0.9523365183	        0.0000000000	       -0.0708727982	        0.0000000000	        0.0000000000	        0.0000000000	        0.0000000000	        0.0000000000	        0.0000000000	
        0.6291328528	       62.2754181109	      269.1628815298	        8.9325166989	        0.3940422688	        0.0000000000	        0.0325556691	     -171.7354282310	      165.7987075040	      -12.1852451375	        0.9702060315	        0.0000000000	       -0.0712194975	        0.0000000000	        0.0000000000	        0.0000000000	        0.0000000000	        0.0000000000	        0.0000000000	
        0.6414687911	       43.6354003485	      218.8185242413	       19.3720501740	        0.3984214391	        0.0000000000	        0.0311474278	     -110.1131391265	      486.8620053540	       13.0033326138	        0.9842304863	        0.0000000000	       -0.0698927458	        0.0000000000	        0.0000000000	        0.0000000000	        0.0000000000	        0.0000000000	        0.0000000000	
        0.6538047294	       36.9651763392	      175.1536305017	       23.6999048709	        0.3984687040	        0.0000000000	        0.0314630195	     -182.2563419800	      858.9791706904	       24.2782546999	        1.0003738979	        0.0000000000	       -0.0667894867	        0.0000000000	        0.0000000000	        0.0000000000	        0.0000000000	        0.0000000000	        0.0000000000	
        0.6661406677	       22.0570090254	      115.4425496195	       23.5326952845	        0.3982980277	        0.0000000000	        0.0318241778	     -198.6087740315	      965.5985176642	       25.2250420863	        1.0066930164	        0.0000000000	       -0.0647663150	        0.0000000000	        0.0000000000	        0.0000000000	        0.0000000000	        0.0000000000	        0.0000000000	
        0.6784766060	       -1.7187758120	       42.6210191950	       11.5431209626	        0.3965086220	        0.0000000000	        0.0318098845	     -181.7191249164	      907.2713570056	       23.1436174546	        1.0102387497	        0.0000000000	       -0.0636002873	        0.0000000000	        0.0000000000	        0.0000000000	        0.0000000000	        0.0000000000	        0.0000000000	
        0.6908125442	       -2.4542043815	        2.3505433001	       -0.0466978992	        0.0000000000	        0.0000000000	        0.0000000000	     -151.1754217739	      819.2021667630	       20.3182541449	        1.0132692439	        0.0000000000	       -0.0629354910	        0.0000000000	        0.0000000000	        0.0000000000	        0.0000000000	        0.0000000000	        0.0000000000	
        0.7031484825	        0.1179519051	       -0.0981690549	        0.0082659488	        0.0000000000	        0.0000000000	        0.0000000000	     -134.5273278711	      755.2309987859	       18.4170350304	        1.0165141170	        0.0000000000	       -0.0624380846	        0.0000000000	        0.0000000000	        0.0000000000	        0.0000000000	        0.0000000000	        0.0000000000	
        0.7154844208	       -1.5318571291	        1.0986140006	       -0.1344789963	        0.0000000000	        0.0000000000	        0.0000000000	     -120.3474895919	      723.1390621930	       17.1884413276	        1.0189141248	        0.0000000000	       -0.0621863470	        0.0000000000	        0.0000000000	        0.0000000000	        0.0000000000	        0.0000000000	        0.0000000000	
        0.7278203591	        0.2007706578	       -0.1339653756	        0.0149780612	        0.0000000000	        0.0000000000	        0.0000000000	     -103.7819377543	      698.8651242310	       17.1302643911	        1.0209807951	        0.0000000000	       -0.0620622620	        0.0000000000	        0.0000000000	        0.0000000000	        0.0000000000	        0.0000000000	        0.0000000000	
